<?xml version="1.0" encoding="utf-8"?>
<!-- Generator: Adobe Illustrator 27.0.0, SVG Export Plug-In . SVG Version: 6.00 Build 0)  -->
<svg version="1.1" id="Layer_1" xmlns="http://www.w3.org/2000/svg" xmlns:xlink="http://www.w3.org/1999/xlink" x="0px" y="0px"
	 viewBox="0 0 900 900" style="enable-background:new 0 0 900 900;" xml:space="preserve">
<style type="text/css">
	.st0{fill:#FFFFFF;}
</style>
<g>
	<path d="M891.39,451.48C891.39,695.9,693.26,894,448.88,894C204.49,894,6.37,695.9,6.37,451.48C6.37,207.11,204.49,9,448.88,9
		C693.26,9,891.39,207.11,891.39,451.48"/>
	<polygon class="st0" points="610.6,416.5 565.22,416.5 565.22,436.75 610.6,436.7 610.6,464.07 565.22,464.07 565.22,486.53 
		610.6,486.53 610.6,524.25 518.05,524.25 518.05,379.84 610.6,379.84 	"/>
	<path class="st0" d="M691.03,484.66c0,0.11,18.08-37.03,18.08-37.03s17.72,37.14,17.72,37.03H691.03z M709.11,367.95
		c-29.26,51.65-86.87,156.3-86.87,156.3h49.36l7.99-15.72h58.95l7.77,15.72h49.7L709.11,367.95z"/>
	<path class="st0" d="M427.61,444.56L460,379.84h50.33c0.18,0-82.72,155.17-82.72,155.17L345,379.84h50.37
		C395.36,379.84,425.03,440.04,427.61,444.56"/>
	<path class="st0" d="M337.28,524.25h-47.22V379.83c0,0,47.22,0.18,47.22,0V524.25z"/>
	<polygon class="st0" points="200.2,435.72 200.2,379.82 247.4,379.82 247.4,535 170.73,468.3 170.73,524.25 123.47,524.25 
		123.47,368.9 	"/>
</g>
</svg>
