<?xml version="1.0" encoding="utf-8"?>
<!-- Generator: Adobe Illustrator 27.0.0, SVG Export Plug-In . SVG Version: 6.00 Build 0)  -->
<svg version="1.1" id="Layer_1" xmlns="http://www.w3.org/2000/svg" xmlns:xlink="http://www.w3.org/1999/xlink" x="0px" y="0px"
	 viewBox="0 0 900 900" style="enable-background:new 0 0 900 900;" xml:space="preserve">
<style type="text/css">
	.st0{fill:#FFFFFF;}
</style>
<g>
	<path class="st0" d="M448.88,9C204.49,9,6.37,207.1,6.37,451.48C6.37,695.9,204.49,894,448.88,894
		c244.38,0,442.5-198.1,442.5-442.52C891.39,207.1,693.26,9,448.88,9z M247.4,535l-76.67-66.7v55.95h-47.26V368.9l76.73,66.82
		v-55.89h47.21V535z M337.28,524.25h-47.22V379.83c0,0,47.22,0.18,47.22,0V524.25z M427.61,535L345,379.84h50.37
		c0,0,29.66,60.2,32.24,64.72L460,379.84h50.33C510.5,379.84,427.61,535,427.61,535z M610.6,416.5h-45.38v20.25l45.38-0.05v27.37
		h-45.38v22.46h45.38v37.72h-92.54V379.84h92.54V416.5z M746.32,524.25l-7.77-15.72H679.6l-7.99,15.72h-49.36
		c0,0,57.6-104.65,86.87-156.3l86.91,156.3H746.32z"/>
	<path class="st0" d="M691.03,484.66h35.79c0,0.11-17.72-37.03-17.72-37.03S691.03,484.78,691.03,484.66z"/>
</g>
</svg>
